<svg width="710" height="150" viewbox = "0 0 710 150"  xmlns="http://www.w3.org/2000/svg">
<!--<json>{
  "glyph": "0336,0336,0332,0332,0332,0332,0336,0331,0332,0337,01230,01235,01232,01234,01231,01235,01233,01234,0336,0330,0333,0336,0341,",
  "x0": 355,
  "y0": 75,
  "unit": 294.13350746629254,
  "width": 710,
  "height": 150,
  "style": {
    "color0": "black",
    "fill0": "black",
    "line0": 1,
    "color1": "black",
    "fill1": "black",
    "line1": 5,
    "color2": "red",
    "fill2": "red",
    "line2": 8,
    "color3": "#FF7900",
    "fill3": "#FF7900",
    "line3": 4,
    "color4": "yellow",
    "fill4": "yellow",
    "line4": 4,
    "color5": "green",
    "fill5": "green",
    "line5": 4,
    "color6": "blue",
    "fill6": "blue",
    "line6": 4,
    "color7": "purple",
    "fill7": "purple",
    "line7": 1
  },
  "shapes": [
    "0220:0336,0362,0203,0336,0203,0336,0203,0364,0335,0312,0336,0330,0306,0334,0334,0313,0337,0362,0203,0334,0334,0203,0334,0334,0203,0363,0334,0334,0336,0332,0334,0304,0335,0312,0337,0330,0313,0337,0337,0337,",
    "0221:0322,0334,0220,0335,",
    "0222:0322,0335,0220,0334,",
    "0223:0325,0306,0335,0304,0220,0306,0334,0304,",
    "0224:0325,0335,0335,0306,0335,0304,0220,0306,0335,0335,0304,",
    "0225:0326,0335,0335,0220,0335,0335,",
    "0226:0326,0220,",
    "0230:0221,",
    "0231:0222,",
    "0232:0223,",
    "0233:0224,",
    "0234:0225,",
    "0235:0226,",
    "0236:0230,0235,0232,0234,0231,0235,0233,0234,",
    "01220:0333,0200,0336,0330,0332,0336,0331,0337,0220,0331,0333,0336,0331,0337,0337,",
    "01221:0333,0200,0336,0330,0332,0336,0333,0337,0221,0333,0336,0331,0333,0331,0337,0337,0320,",
    "01222:0333,0200,",
    "01223:0333,0200,",
    "01224:0333,0200,",
    "01225:0333,0200,",
    "01226:0333,0200,",
    "01227:0333,0200,",
    "01230:0333,0200,0336,0330,0336,0332,0337,0221,0331,0333,0336,0333,0337,0337,0320,",
    "01231:0333,0200,0336,0330,0332,0336,0332,0337,0222,0336,0331,0331,0333,0337,0337,0320,",
    "01232:0333,0200,0336,0330,0332,0336,0331,0332,0337,0223,0306,0335,0331,0334,0304,0331,0333,0336,0330,0333,0337,0337,0320,",
    "01233:0333,0200,0336,0330,0332,0336,0333,0330,0337,0224,0306,0333,0313,0304,0336,0333,0330,0337,0337,0331,0320,",
    "01234:0333,0200,0336,0330,0332,0336,0330,0337,0225,0336,0331,0333,0333,0337,0337,0320,",
    "01235:0333,0200,0336,0330,0332,0336,0331,0337,0226,0336,0330,0333,0333,0337,0337,0331,0320,",
    "01236:0333,0200,0336,0336,0330,0332,0337,0336,0332,0236,0331,0333,0333,0337,0337,0320,",
    "01237:0333,0237,",
    "0240:0220,0336,0331,0333,0336,0321,0335,0342,0335,0335,0342,0335,0330,0330,0332,0332,0337,0337,",
    "01240:0333,0200,0336,0330,0332,0210,0240,0211,0333,0331,0337,",
    "0241:0220,0336,0321,0343,0332,0350,0335,0336,0342,0334,0334,0342,0335,0304,0337,0333,0337,",
    "01241:0333,0200,0336,0332,0330,0210,0241,0211,0333,0331,0337,",
    "0242:0220,0321,0336,0343,0333,0336,0350,0335,0342,0334,0334,0342,0335,0337,0304,0332,0337,",
    "01242:0333,0200,0336,0330,0332,0210,0242,0211,0333,0331,0337,",
    "0243:0220,0336,0331,0332,0336,0321,0343,0332,0350,0334,0336,0342,0335,0335,0342,0337,0334,0334,0335,0304,0332,0330,0330,0337,0337,0333,",
    "01243:0333,0200,0336,0330,0332,0210,0243,0211,0333,0331,0337,",
    "0244:0220,0336,0331,0333,0336,0321,0343,0333,0350,0336,0335,0342,0334,0334,0342,0335,0337,0304,0333,0330,0330,0337,0337,0332,",
    "01244:0333,0200,0336,0330,0332,0210,0244,0211,0333,0331,0337,",
    "0245:0210,0332,0332,0362,0335,0203,0203,0203,0203,0334,0203,0363,0332,0332,0331,0211,",
    "01245:0333,0200,0336,0330,0332,0336,0245,0337,0333,0331,0337,",
    "0246:0210,0332,0332,0335,0306,0336,0330,0335,0335,0335,0321,0362,0203,0335,0335,0203,0364,0331,0350,0335,0337,0366,0333,0333,0333,0333,0334,0334,0334,0334,0367,0335,0336,0342,0334,0334,0342,0330,0330,0330,0330,0335,0335,0335,0304,0337,0211,",
    "01246:0333,0200,0336,0330,0332,0336,0246,",
    "0247:0330,0332,0336,0332,0336,0221,0333,0333,0333,0222,0333,0333,0333,0223,0333,0333,0333,0225,0333,0331,0331,0331,0332,0332,0332,0332,0332,0332,0332,0332,0332,0332,0332,0332,0333,0333,0226,0331,0331,0331,0333,0333,0333,0333,0333,0333,0333,0333,0333,0333,0333,0333,0333,0330,0333,0330,0330,0333,0330,0331,0332,0332,0332,0332,0332,0332,0332,0332,0332,0332,0332,0332,0227,0333,0333,0333,0230,0333,0331,0331,0331,0331,0332,0332,0332,0330,0332,0332,0332,0332,0332,0332,0333,0333,0231,0333,0333,0333,0232,0331,0333,0330,0333,0333,0233,0333,0333,0333,0234,0330,0330,0332,0330,0332,0332,0337,0337,",
    "01247:0333,0200,0336,0330,0332,0220,0336,0247,0337,0331,0333,0337,"
  ]
}</json>-->	<path d = "M98 112 L98 38 L24 38 L24 112 L98 112 Z" stroke = "#000000" stroke-width = "1" fill = "none" />	<path d = "M79 75 L61 75 L52 75 L47 75 " stroke = "#ff0000" stroke-width = "8" fill = "none" />	<path d = "M47 72 L42 75 L47 78 L47 72 Z" stroke = "#ff0000" stroke-width = "8" fill = "#ff0000" />	<path d = "M171 112 L171 38 L98 38 L98 112 L171 112 Z" stroke = "#000000" stroke-width = "1" fill = "none" />	<path d = "M134 93 L134 75 L134 66 L134 61 " stroke = "#0000ff" stroke-width = "4" fill = "none" />	<path d = "M137 61 L134 57 L132 61 L137 61 Z" stroke = "#0000ff" stroke-width = "4" fill = "#0000ff" />	<path d = "M245 112 L245 38 L171 38 L171 112 L245 112 Z" stroke = "#000000" stroke-width = "1" fill = "none" />	<path d = "M190 93 L205 84 L213 80 L217 77 " stroke = "#008000" stroke-width = "4" fill = "none" />	<path d = "M219 80 L221 75 L216 75 L219 80 Z" stroke = "#008000" stroke-width = "4" fill = "#008000" />	<path d = "M318 112 L318 38 L245 38 L245 112 L318 112 Z" stroke = "#000000" stroke-width = "1" fill = "none" />	<path d = "M281 57 L281 75 L281 84 L281 89 " stroke = "#0000ff" stroke-width = "4" fill = "none" />	<path d = "M279 89 L281 93 L284 89 L279 89 Z" stroke = "#0000ff" stroke-width = "4" fill = "#0000ff" />	<path d = "M392 112 L392 38 L318 38 L318 112 L392 112 Z" stroke = "#000000" stroke-width = "1" fill = "none" />	<path d = "M337 75 L355 75 L364 75 L369 75 " stroke = "#ff0000" stroke-width = "8" fill = "none" />	<path d = "M369 78 L373 75 L369 72 L369 78 Z" stroke = "#ff0000" stroke-width = "8" fill = "#ff0000" />	<path d = "M465 112 L465 38 L392 38 L392 112 L465 112 Z" stroke = "#000000" stroke-width = "1" fill = "none" />	<path d = "M429 93 L429 75 L429 66 L429 61 " stroke = "#0000ff" stroke-width = "4" fill = "none" />	<path d = "M431 61 L429 57 L426 61 L431 61 Z" stroke = "#0000ff" stroke-width = "4" fill = "#0000ff" />	<path d = "M539 112 L539 38 L465 38 L465 112 L539 112 Z" stroke = "#000000" stroke-width = "1" fill = "none" />	<path d = "M520 57 L505 66 L497 70 L493 73 " stroke = "#008000" stroke-width = "4" fill = "none" />	<path d = "M491 70 L489 75 L494 75 L491 70 Z" stroke = "#008000" stroke-width = "4" fill = "#008000" />	<path d = "M612 112 L612 38 L539 38 L539 112 L612 112 Z" stroke = "#000000" stroke-width = "1" fill = "none" />	<path d = "M576 57 L576 75 L576 84 L576 89 " stroke = "#0000ff" stroke-width = "4" fill = "none" />	<path d = "M573 89 L576 93 L578 89 L573 89 Z" stroke = "#0000ff" stroke-width = "4" fill = "#0000ff" /><circle cx="649" cy = "75" r = "18.383344216643284" stroke = "#000000" stroke-width = "1" fill = "none" />
</svg>